<?xml version="1.0" encoding="UTF-8" standalone="no"?>
<svg
   data-name="Layer 1"
   viewBox="0 0 1129 586"
   version="1.1"
   id="svg6"
   sodipodi:docname="devlistings-horizontal.svg"
   inkscape:version="1.1 (c68e22c387, 2021-05-23)"
   xmlns:inkscape="http://www.inkscape.org/namespaces/inkscape"
   xmlns:sodipodi="http://sodipodi.sourceforge.net/DTD/sodipodi-0.dtd"
   xmlns="http://www.w3.org/2000/svg"
   xmlns:svg="http://www.w3.org/2000/svg"
   xmlns:serif="http://www.serif.com/">
  <defs
     id="defs10" />
  <sodipodi:namedview
     id="namedview8"
     pagecolor="#ffffff"
     bordercolor="#666666"
     borderopacity="1.0"
     inkscape:pageshadow="2"
     inkscape:pageopacity="0.0"
     inkscape:pagecheckerboard="0"
     showgrid="false"
     inkscape:zoom="0.53897254"
     inkscape:cx="511.15776"
     inkscape:cy="108.53985"
     inkscape:window-width="1920"
     inkscape:window-height="1015"
     inkscape:window-x="0"
     inkscape:window-y="0"
     inkscape:window-maximized="1"
     inkscape:current-layer="svg6" />
  <path
     d="M 643.49,332.41 H 566 l 0.78,-2.64 q 6.95,0 10.13,-2.69 3.18,-2.69 5.9,-12.05 l 18,-62.3 a 31.16,31.16 0 0 0 1.51,-8.09 5.56,5.56 0 0 0 -2.15,-4.57 c -1.43,-1.15 -4.25,-1.82 -8.44,-2 l 0.78,-2.64 h 46.57 l -0.79,2.64 q -6.72,0.15 -10.05,3 -3.33,2.85 -5.9,11.66 l -16.45,57 q -3.15,10.88 -3.15,13.23 a 3.48,3.48 0 0 0 1.61,2.68 c 1.08,0.84 2.8,1.25 5.19,1.25 a 51.36,51.36 0 0 0 22.92,-5.43 49.67,49.67 0 0 0 18.71,-16.24 h 3 z M 697.57,266.1 682.91,317 a 28.37,28.37 0 0 0 -1.22,5.72 2.1,2.1 0 0 0 0.65,1.47 1.88,1.88 0 0 0 1.36,0.68 3.72,3.72 0 0 0 2.43,-1.07 q 3.21,-2.65 7.72,-9.59 l 2.43,1.43 q -10.8,18.81 -23,18.82 a 10.31,10.31 0 0 1 -7.4,-2.62 8.69,8.69 0 0 1 -2.75,-6.61 24.55,24.55 0 0 1 1.21,-6.73 l 9.94,-34.19 a 29.24,29.24 0 0 0 1.43,-7.44 3.67,3.67 0 0 0 -1.31,-2.87 5.39,5.39 0 0 0 -3.72,-1.21 c -0.72,0 -1.58,0 -2.58,0.07 l 0.9,-2.86 24.25,-3.94 z m -4.43,-32.9 a 10.51,10.51 0 1 1 -10.45,10.51 10.21,10.21 0 0 1 3,-7.43 10,10 0 0 1 7.45,-3.08 z m 62.3,32.9 -3.15,22.11 h -2.64 q -0.58,-8.59 -5.26,-13.52 c -3.13,-3.29 -6.47,-4.94 -10,-4.94 a 7.85,7.85 0 0 0 -5.44,1.93 6,6 0 0 0 -2.14,4.65 10,10 0 0 0 0.93,4.29 23.56,23.56 0 0 0 4.14,5.44 q 11.31,12.17 13.74,16.74 a 20.59,20.59 0 0 1 2.43,9.8 21.29,21.29 0 0 1 -2.86,10.69 20.86,20.86 0 0 1 -8.55,8.09 24.87,24.87 0 0 1 -11.84,3 40.44,40.44 0 0 1 -10.23,-1.65 24.47,24.47 0 0 0 -6,-1.15 5.9,5.9 0 0 0 -2.79,0.54 7.28,7.28 0 0 0 -2.22,2.26 h -2.65 l 3.51,-23.82 h 2.29 c 1.66,5.77 3.23,9.88 4.68,12.33 a 16.48,16.48 0 0 0 5.83,5.87 13.72,13.72 0 0 0 7,2.18 9,9 0 0 0 6.51,-2.47 7.87,7.87 0 0 0 2.58,-5.9 13.68,13.68 0 0 0 -1.69,-6.51 q -1.68,-3.15 -7.76,-9.8 -8.37,-9.07 -11,-14 a 17.39,17.39 0 0 1 -1.86,-8.15 16.77,16.77 0 0 1 5.61,-12.88 q 5.63,-5.14 15.78,-5.15 a 47.2,47.2 0 0 1 10.87,1.58 23,23 0 0 0 5.15,0.78 5.32,5.32 0 0 0 4.51,-2.36 z m 44.49,-17.45 -5.72,19.46 h 9.37 l -2.5,8.22 h -9.23 l -12,41.49 a 22.73,22.73 0 0 0 -1.14,5.87 2.23,2.23 0 0 0 0.64,1.6 1.92,1.92 0 0 0 1.43,0.68 4.12,4.12 0 0 0 2.51,-1 q 3.28,-2.5 7.65,-8.72 l 2.5,1.57 q -4.93,8.58 -10.87,12.59 a 20.83,20.83 0 0 1 -11.66,4 c -3.24,0 -5.76,-0.83 -7.54,-2.47 a 8.14,8.14 0 0 1 -2.69,-6.26 40.59,40.59 0 0 1 1.91,-10.68 l 11.3,-38.7 h -9.72 l 1.43,-5.3 a 65.16,65.16 0 0 0 15.45,-7.87 q 6.29,-4.5 15.16,-14.52 z M 836,266.1 821.32,317 a 28.37,28.37 0 0 0 -1.22,5.72 2.1,2.1 0 0 0 0.65,1.47 1.88,1.88 0 0 0 1.36,0.68 3.72,3.72 0 0 0 2.43,-1.07 q 3.21,-2.65 7.72,-9.59 l 2.44,1.43 q -10.82,18.81 -23,18.82 a 10.32,10.32 0 0 1 -7.4,-2.62 8.69,8.69 0 0 1 -2.75,-6.61 24.55,24.55 0 0 1 1.21,-6.73 l 10,-34.19 a 29.7,29.7 0 0 0 1.43,-7.44 3.68,3.68 0 0 0 -1.36,-2.79 5.39,5.39 0 0 0 -3.72,-1.21 c -0.72,0 -1.58,0 -2.58,0.07 l 0.93,-2.86 24.25,-3.94 z m -4.43,-32.9 a 10.52,10.52 0 1 1 -10.44,10.51 10.2,10.2 0 0 1 3,-7.43 10,10 0 0 1 7.42,-3.08 z m 46.9,32.9 -8.87,30.69 q 8.94,-13.44 13.38,-18.38 6.51,-7.16 11.23,-9.73 a 18.61,18.61 0 0 1 8.87,-2.58 8.48,8.48 0 0 1 6.36,2.76 9.91,9.91 0 0 1 2.65,7.19 34.91,34.91 0 0 1 -1.71,9.72 l -9.16,30.55 a 25.77,25.77 0 0 0 -1.15,5.22 1.83,1.83 0 0 0 0.54,1.29 1.55,1.55 0 0 0 1.11,0.57 2.57,2.57 0 0 0 1.5,-0.57 28.29,28.29 0 0 0 5.08,-5.83 c 0.43,-0.67 1.12,-1.67 2.08,-3 l 2.71,1.64 q -10.51,17.67 -22.1,17.67 a 9.88,9.88 0 0 1 -6.94,-2.29 7.41,7.41 0 0 1 -2.5,-5.72 35.76,35.76 0 0 1 1.71,-8.94 l 9,-30.55 a 16.91,16.91 0 0 0 0.93,-4.43 1.9,1.9 0 0 0 -0.65,-1.4 2.13,2.13 0 0 0 -1.5,-0.6 c -1.81,0 -4,1.24 -6.58,3.72 q -9.87,9.44 -19.1,28.11 l -5.87,21.24 H 841.2 l 13.38,-45.92 q 1.93,-6.8 1.93,-9.66 a 3.5,3.5 0 0 0 -0.57,-2 3.74,3.74 0 0 0 -1.86,-1.28 16.66,16.66 0 0 0 -4.86,-0.47 l 0.78,-2.72 24.11,-4.22 z m 99,4.37 h 19 l -2.29,7.86 h -9.87 a 17,17 0 0 1 2.29,8 21.76,21.76 0 0 1 -3.54,12 24.53,24.53 0 0 1 -10.45,8.8 35.11,35.11 0 0 1 -15.34,3.29 42.38,42.38 0 0 1 -4.9,-0.32 q -2.68,-0.31 -5.83,-0.89 -4.73,2.43 -5.94,3.86 a 3.18,3.18 0 0 0 -0.86,2.07 2.84,2.84 0 0 0 1.08,2.22 12,12 0 0 0 5.5,2.43 q 14.6,3.15 19.25,5.08 a 23.26,23.26 0 0 1 9.62,6.8 15.7,15.7 0 0 1 3.25,10 q 0,8.94 -8.22,15.63 -8.22,6.69 -25.44,6.7 -17.38,0 -25.61,-5.72 -5.92,-4.15 -5.93,-9.88 c 0,-2.9 1.3,-5.6 3.89,-8.08 2.59,-2.48 8.17,-4.67 16.71,-6.58 a 19.21,19.21 0 0 1 -5.87,-4.43 9.24,9.24 0 0 1 -2.07,-5.65 11.32,11.32 0 0 1 3.82,-8.44 q 3.82,-3.66 12.84,-7.23 -7,-2.79 -10.12,-7.19 a 17.33,17.33 0 0 1 -3.11,-10.26 20.9,20.9 0 0 1 3.76,-11.84 26.83,26.83 0 0 1 11.08,-9.12 38.6,38.6 0 0 1 16.83,-3.48 39.36,39.36 0 0 1 10.8,1.36 20,20 0 0 1 5.67,3.01 z m -39.63,64.95 q -6.8,2.64 -9.26,5.72 a 10.4,10.4 0 0 0 -2.47,6.65 q 0,4.65 4.9,8.41 4.9,3.76 15.63,3.8 8.94,0 13,-3.25 4.06,-3.25 4,-7.62 a 7.28,7.28 0 0 0 -3.68,-6.3 q -3.69,-2.43 -14.13,-5.07 c -3.29,-0.91 -5.94,-1.68 -7.99,-2.34 z m 24.68,-65.81 a 8.32,8.32 0 0 0 -5.94,2.29 q -3.86,3.5 -6.76,11.73 a 47,47 0 0 0 -2.89,15.59 7.5,7.5 0 0 0 2,5.55 6.86,6.86 0 0 0 5,2 7.18,7.18 0 0 0 5.08,-2 q 4.08,-3.93 7.08,-12.55 a 48.07,48.07 0 0 0 3,-15.63 6.86,6.86 0 0 0 -1.93,-5.08 6.41,6.41 0 0 0 -4.64,-1.9 z m 86.05,-3.51 -3.15,22.11 h -2.64 q -0.57,-8.59 -5.26,-13.52 -4.69,-4.93 -10,-4.94 a 7.87,7.87 0 0 0 -5.44,1.93 6,6 0 0 0 -2.14,4.65 10,10 0 0 0 0.93,4.29 23.67,23.67 0 0 0 4.15,5.44 q 11.29,12.17 13.73,16.74 a 20.59,20.59 0 0 1 2.43,9.8 21.29,21.29 0 0 1 -2.86,10.69 20.86,20.86 0 0 1 -8.55,8.09 24.84,24.84 0 0 1 -11.84,3 40.3,40.3 0 0 1 -10.22,-1.65 24.53,24.53 0 0 0 -6,-1.15 6,6 0 0 0 -2.79,0.54 7.28,7.28 0 0 0 -2.22,2.26 H 994 l 3.51,-23.82 h 2.29 q 2.51,8.65 4.68,12.33 a 16.56,16.56 0 0 0 5.83,5.87 13.75,13.75 0 0 0 7,2.18 9,9 0 0 0 6.51,-2.47 7.87,7.87 0 0 0 2.58,-5.9 13.67,13.67 0 0 0 -1.68,-6.51 Q 1023,313 1017,306.3 q -8.37,-9.07 -11,-14 a 17.39,17.39 0 0 1 -1.86,-8.15 16.75,16.75 0 0 1 5.62,-12.88 q 5.61,-5.14 15.77,-5.15 a 47.2,47.2 0 0 1 10.87,1.58 23.12,23.12 0 0 0 5.15,0.78 5.32,5.32 0 0 0 4.51,-2.36 z"
     fill="#ff1990"
     id="path4" />
  <g
     transform="matrix(1.4011577,0,0,1.4011577,14.71523,208.27372)"
     id="g42"
     style="clip-rule:evenodd;fill-rule:evenodd;stroke-linejoin:round;stroke-miterlimit:2">
    <g
       transform="matrix(0.631012,0,0,0.632791,-270.425,-75.1394)"
       id="g4">
      <path
         d="m 544.209,216.955 c 0,-0.179 0.096,-0.361 0.351,-0.45 0.192,-0.093 0.543,0.089 0.543,0.361 0.095,0.36 -0.096,0.632 -0.447,0.724 -0.351,0.089 -0.798,-0.092 -0.894,-0.543 -0.096,-0.453 0.16,-0.995 0.702,-1.177 0.543,-0.09 1.277,0.271 1.373,0.906 0.191,0.722 -0.192,1.535 -1.085,1.717 -0.83,0.272 -1.82,-0.271 -2.075,-1.356 -0.287,-0.996 0.351,-2.263 1.628,-2.534 1.34,-0.361 2.872,0.453 3.255,1.991 0.351,1.628 -0.638,3.438 -2.649,3.98 -1.883,0.463 -4.245,-0.724 -4.788,-3.166 -0.542,-2.352 0.926,-5.158 3.894,-5.882 3.001,-0.722 6.416,1.088 7.342,4.714 0.798,3.619 -1.469,7.881 -5.873,8.966 -4.533,1.088 -9.799,-1.717 -11.044,-7.156 -1.373,-5.436 2.075,-11.861 8.841,-13.489 6.703,-1.628 14.683,2.451 16.757,10.776 1.979,8.241 -3.159,18.014 -13.469,20.545 -10.246,2.535 -22.375,-3.89 -25.343,-16.393 -3.001,-12.576 4.883,-27.242 20.364,-30.96 15.448,-3.709 33.642,5.7 38.365,24.628 4.692,19.017 -7.149,41.554 -30.769,47.344 -23.619,5.701 -51.388,-8.867 -58.187,-37.845 -6.607,-28.609 11.491,-62.014 46.697,-70.438 22.438,-5.336 40.695,-1.085 59.176,12.768"
         id="path2" />
    </g>
    <g
       id="j"
       transform="translate(5,-1.74923)">
      <path
         d="m 181.556,33.605 h 11.819 l -0.082,48.212 c 0,0 0.759,12.577 -11.374,13.683 -4.447,0.405 -9.468,-1.38 -9.468,-1.38 l 2.316,-10.562 4.485,0.994 c 1.769,0.235 2.01,-0.367 2.271,-2.567 z"
         id="path6" />
    </g>
    <g
       transform="translate(5,-1.74923)"
       id="g11">
      <path
         d="m 199.017,33.697 11.7,-0.1 -0.044,29.729 c 0,0 0.082,5.788 5.537,5.79 4.801,0.001 8.64,-2.385 8.613,-9.429 -0.023,-5.974 0.055,-26.108 0.055,-26.108 l 11.746,0.084 v 45.376 l -10.944,0.064 -0.128,-2.304 c 0,0 -4.439,3.596 -11.712,3.2 -6.165,-0.336 -14.488,-3.834 -14.592,-12.16 -0.067,-5.366 -0.231,-34.142 -0.231,-34.142 z"
         id="path9" />
    </g>
    <g
       transform="rotate(179.33546,241.99535,55.569717)"
       id="g15">
      <path
         d="m 198.851,33.375 11.789,-0.019 -0.302,30.581 c 0,0 0.422,5.428 5.872,5.179 5.418,-0.248 8.443,-3.052 8.416,-10.097 -0.023,-5.974 0.252,-25.44 0.252,-25.44 l 11.746,0.084 -0.462,45.524 -11.044,-0.142 0.025,-2.251 c 0,0 -3.876,3.501 -11.148,3.104 -6.165,-0.336 -15.53,-3.845 -15.374,-15.343 0.067,-4.956 0.23,-31.18 0.23,-31.18 z"
         id="path13" />
    </g>
    <g
       transform="translate(5,-1.74923)"
       id="g18">
      <rect
         id="I"
         x="302.711"
         y="33.625999"
         width="11.648"
         height="45.504002" />
    </g>
    <g
       transform="matrix(0.704911,0,0,0.704911,-213.76,-47.573)"
       id="g22">
      <ellipse
         cx="723.685"
         cy="168.8"
         rx="8.4280005"
         ry="8.7410002"
         id="ellipse20" />
    </g>
    <g
       transform="translate(5,-1.74923)"
       id="g26">
      <path
         d="m 339.174,32.204 c 11.668,0 21.141,10.617 21.141,23.694 0,13.078 -9.473,23.695 -21.141,23.695 -11.669,0 -21.141,-10.617 -21.141,-23.695 0,-13.077 9.472,-23.694 21.141,-23.694 z m 0,10.52 c 5.464,0 9.901,5.903 9.901,13.174 0,7.272 -4.437,13.175 -9.901,13.175 -5.465,0 -9.901,-5.903 -9.901,-13.175 0,-7.271 4.436,-13.174 9.901,-13.174 z"
         id="path24" />
    </g>
    <g
       transform="matrix(0.695023,0,0,0.666776,-310.771,-91.2859)"
       id="g30">
      <ellipse
         cx="723.685"
         cy="168.8"
         rx="8.4280005"
         ry="8.7410002"
         id="ellipse28" />
    </g>
    <g
       transform="matrix(0.695023,0,0,0.666776,-189.438,-91.2859)"
       id="g34">
      <ellipse
         cx="723.685"
         cy="168.8"
         rx="8.4280005"
         ry="8.7410002"
         id="ellipse32" />
    </g>
    <g
       id="_1"
       serif:id="1"
       transform="translate(5,-1.99588)">
      <path
         d="m 62.649,2.214 c 34.168,0 61.909,27.686 61.909,61.786 0,34.1 -27.741,61.786 -61.909,61.786 C 28.48,125.786 0.74,98.1 0.74,64 0.74,29.9 28.48,2.214 62.649,2.214 Z m 0,7.893 c 29.268,0 53.029,24.149 53.029,53.893 0,29.744 -23.761,53.893 -53.029,53.893 -29.268,0 -53.03,-24.149 -53.03,-53.893 0,-29.744 23.762,-53.893 53.03,-53.893 z"
         id="path36" />
    </g>
    <g
       id="v"
       transform="translate(5,-1.74923)">
      <path
         d="m 133.165,33.57 12.333,-0.223 9.667,27.223 10,-27.223 h 12.333 l -17.222,45.556 h -10 z"
         id="path39" />
    </g>
  </g>
</svg>
