<?xml version="1.0" encoding="UTF-8" standalone="no"?>
<svg
   version="1"
   width="176"
   height="86.667"
   viewBox="0 0 132 65"
   id="svg829"
   sodipodi:docname="devplain.svg"
   inkscape:version="1.1 (c68e22c387, 2021-05-23)"
   xmlns:inkscape="http://www.inkscape.org/namespaces/inkscape"
   xmlns:sodipodi="http://sodipodi.sourceforge.net/DTD/sodipodi-0.dtd"
   xmlns="http://www.w3.org/2000/svg"
   xmlns:svg="http://www.w3.org/2000/svg"
   xmlns:serif="http://www.serif.com/">
  <defs
     id="defs833" />
  <sodipodi:namedview
     id="namedview831"
     pagecolor="#ffffff"
     bordercolor="#666666"
     borderopacity="1.0"
     inkscape:pageshadow="2"
     inkscape:pageopacity="0.0"
     inkscape:pagecheckerboard="0"
     showgrid="false"
     inkscape:zoom="1.7286932"
     inkscape:cx="66.235004"
     inkscape:cy="113.09121"
     inkscape:window-width="1920"
     inkscape:window-height="1015"
     inkscape:window-x="0"
     inkscape:window-y="0"
     inkscape:window-maximized="1"
     inkscape:current-layer="svg829" />
  <g
     transform="matrix(0.35883407,0,0,0.35883407,-0.66538631,12.133309)"
     id="g42"
     style="clip-rule:evenodd;fill-rule:evenodd;stroke-linejoin:round;stroke-miterlimit:2">
    <g
       transform="matrix(0.631012,0,0,0.632791,-270.425,-75.1394)"
       id="g4">
      <path
         d="m 544.209,216.955 c 0,-0.179 0.096,-0.361 0.351,-0.45 0.192,-0.093 0.543,0.089 0.543,0.361 0.095,0.36 -0.096,0.632 -0.447,0.724 -0.351,0.089 -0.798,-0.092 -0.894,-0.543 -0.096,-0.453 0.16,-0.995 0.702,-1.177 0.543,-0.09 1.277,0.271 1.373,0.906 0.191,0.722 -0.192,1.535 -1.085,1.717 -0.83,0.272 -1.82,-0.271 -2.075,-1.356 -0.287,-0.996 0.351,-2.263 1.628,-2.534 1.34,-0.361 2.872,0.453 3.255,1.991 0.351,1.628 -0.638,3.438 -2.649,3.98 -1.883,0.463 -4.245,-0.724 -4.788,-3.166 -0.542,-2.352 0.926,-5.158 3.894,-5.882 3.001,-0.722 6.416,1.088 7.342,4.714 0.798,3.619 -1.469,7.881 -5.873,8.966 -4.533,1.088 -9.799,-1.717 -11.044,-7.156 -1.373,-5.436 2.075,-11.861 8.841,-13.489 6.703,-1.628 14.683,2.451 16.757,10.776 1.979,8.241 -3.159,18.014 -13.469,20.545 -10.246,2.535 -22.375,-3.89 -25.343,-16.393 -3.001,-12.576 4.883,-27.242 20.364,-30.96 15.448,-3.709 33.642,5.7 38.365,24.628 4.692,19.017 -7.149,41.554 -30.769,47.344 -23.619,5.701 -51.388,-8.867 -58.187,-37.845 -6.607,-28.609 11.491,-62.014 46.697,-70.438 22.438,-5.336 40.695,-1.085 59.176,12.768"
         id="path2" />
    </g>
    <g
       id="j"
       transform="translate(5,-1.74923)">
      <path
         d="m 181.556,33.605 h 11.819 l -0.082,48.212 c 0,0 0.759,12.577 -11.374,13.683 -4.447,0.405 -9.468,-1.38 -9.468,-1.38 l 2.316,-10.562 4.485,0.994 c 1.769,0.235 2.01,-0.367 2.271,-2.567 z"
         id="path6" />
    </g>
    <g
       transform="translate(5,-1.74923)"
       id="g11">
      <path
         d="m 199.017,33.697 11.7,-0.1 -0.044,29.729 c 0,0 0.082,5.788 5.537,5.79 4.801,0.001 8.64,-2.385 8.613,-9.429 -0.023,-5.974 0.055,-26.108 0.055,-26.108 l 11.746,0.084 v 45.376 l -10.944,0.064 -0.128,-2.304 c 0,0 -4.439,3.596 -11.712,3.2 -6.165,-0.336 -14.488,-3.834 -14.592,-12.16 -0.067,-5.366 -0.231,-34.142 -0.231,-34.142 z"
         id="path9" />
    </g>
    <g
       transform="rotate(179.33546,241.99535,55.569717)"
       id="g15">
      <path
         d="m 198.851,33.375 11.789,-0.019 -0.302,30.581 c 0,0 0.422,5.428 5.872,5.179 5.418,-0.248 8.443,-3.052 8.416,-10.097 -0.023,-5.974 0.252,-25.44 0.252,-25.44 l 11.746,0.084 -0.462,45.524 -11.044,-0.142 0.025,-2.251 c 0,0 -3.876,3.501 -11.148,3.104 -6.165,-0.336 -15.53,-3.845 -15.374,-15.343 0.067,-4.956 0.23,-31.18 0.23,-31.18 z"
         id="path13" />
    </g>
    <g
       transform="translate(5,-1.74923)"
       id="g18">
      <rect
         id="I"
         x="302.711"
         y="33.625999"
         width="11.648"
         height="45.504002" />
    </g>
    <g
       transform="matrix(0.704911,0,0,0.704911,-213.76,-47.573)"
       id="g22">
      <ellipse
         cx="723.685"
         cy="168.8"
         rx="8.4280005"
         ry="8.7410002"
         id="ellipse20" />
    </g>
    <g
       transform="translate(5,-1.74923)"
       id="g26">
      <path
         d="m 339.174,32.204 c 11.668,0 21.141,10.617 21.141,23.694 0,13.078 -9.473,23.695 -21.141,23.695 -11.669,0 -21.141,-10.617 -21.141,-23.695 0,-13.077 9.472,-23.694 21.141,-23.694 z m 0,10.52 c 5.464,0 9.901,5.903 9.901,13.174 0,7.272 -4.437,13.175 -9.901,13.175 -5.465,0 -9.901,-5.903 -9.901,-13.175 0,-7.271 4.436,-13.174 9.901,-13.174 z"
         id="path24" />
    </g>
    <g
       transform="matrix(0.695023,0,0,0.666776,-310.771,-91.2859)"
       id="g30">
      <ellipse
         cx="723.685"
         cy="168.8"
         rx="8.4280005"
         ry="8.7410002"
         id="ellipse28" />
    </g>
    <g
       transform="matrix(0.695023,0,0,0.666776,-189.438,-91.2859)"
       id="g34">
      <ellipse
         cx="723.685"
         cy="168.8"
         rx="8.4280005"
         ry="8.7410002"
         id="ellipse32" />
    </g>
    <g
       id="_1"
       serif:id="1"
       transform="translate(5,-1.99588)">
      <path
         d="m 62.649,2.214 c 34.168,0 61.909,27.686 61.909,61.786 0,34.1 -27.741,61.786 -61.909,61.786 C 28.48,125.786 0.74,98.1 0.74,64 0.74,29.9 28.48,2.214 62.649,2.214 Z m 0,7.893 c 29.268,0 53.029,24.149 53.029,53.893 0,29.744 -23.761,53.893 -53.029,53.893 -29.268,0 -53.03,-24.149 -53.03,-53.893 0,-29.744 23.762,-53.893 53.03,-53.893 z"
         id="path36" />
    </g>
    <g
       id="v"
       transform="translate(5,-1.74923)">
      <path
         d="m 133.165,33.57 12.333,-0.223 9.667,27.223 10,-27.223 h 12.333 l -17.222,45.556 h -10 z"
         id="path39" />
    </g>
  </g>
</svg>
